<svg width="512" height="512" viewBox="0 0 512 512" fill="none" xmlns="http://www.w3.org/2000/svg">
<rect width="512" height="512" rx="250" fill="#ffffff"/>
<path d="M346.579 353.174C338.932 353.174 330.942 351.918 322.609 349.407C314.391 347.01 306.23 343.814 298.125 339.819C290.021 335.824 282.259 331.429 274.84 326.635C267.535 321.955 260.858 317.332 254.808 312.767C251.384 313.68 247.902 314.422 244.364 314.993C240.939 315.563 237.401 315.849 233.748 315.849C226.9 315.849 220.736 314.593 215.257 312.082C209.892 309.571 205.612 305.918 202.416 301.124C199.334 296.216 197.793 290.166 197.793 282.975C197.793 278.295 198.421 273.901 199.676 269.792C201.046 265.568 202.701 261.345 204.642 257.122C202.473 252.898 200.59 248.447 198.992 243.767C197.508 239.087 196.766 234.35 196.766 229.556C196.766 222.936 198.193 217.343 201.046 212.777C204.014 208.211 207.895 204.501 212.689 201.648C217.597 198.794 222.962 196.626 228.783 195.142C234.604 193.658 240.483 192.63 246.418 192.06C252.354 191.489 257.833 191.204 262.855 191.204C265.138 191.204 267.421 191.261 269.704 191.375C271.987 191.375 274.212 191.432 276.381 191.546C282.545 189.377 288.823 187.779 295.215 186.752C301.721 185.725 308.284 185.211 314.905 185.211C318.215 185.211 321.582 185.325 325.006 185.554C328.545 185.782 331.969 186.238 335.279 186.923C335.393 186.923 336.021 187.037 337.163 187.266C338.418 187.494 339.046 187.894 339.046 188.464C339.046 188.921 338.589 189.206 337.676 189.32C336.877 189.434 336.364 189.492 336.135 189.492C335.565 189.492 335.108 189.434 334.766 189.32C332.939 189.092 331.056 188.921 329.115 188.807C327.289 188.578 325.406 188.464 323.465 188.464C318.557 188.464 313.649 188.921 308.741 189.834C303.833 190.633 299.039 191.831 294.359 193.429C299.153 194.114 304.289 195.142 309.768 196.511C315.247 197.881 320.441 199.879 325.349 202.504C330.257 205.015 334.252 208.268 337.334 212.263C340.53 216.258 342.128 221.281 342.128 227.33C342.128 233.494 340.473 239.886 337.163 246.506C333.967 253.127 329.629 259.633 324.15 266.025C318.785 272.417 312.907 278.409 306.515 284.003C300.123 289.481 293.674 294.333 287.168 298.556C280.776 302.665 274.897 305.804 269.532 307.973C275.125 312.196 281.46 316.591 288.537 321.156C295.614 325.836 303.091 330.174 310.967 334.169C318.843 338.164 326.718 341.36 334.594 343.757C342.584 346.268 350.232 347.524 357.537 347.524C362.217 347.524 366.897 346.725 371.577 345.126C376.257 343.528 380.138 340.96 383.22 337.422C386.301 333.997 387.842 329.603 387.842 324.238C387.842 321.727 387.386 319.501 386.473 317.561C385.56 315.62 383.904 314.194 381.507 313.28C381.507 313.28 381.45 313.223 381.336 313.109C381.336 313.109 381.336 313.052 381.336 312.938C381.336 312.596 381.679 312.31 382.364 312.082C383.048 311.854 383.505 311.739 383.733 311.739C387.043 311.739 389.555 313.109 391.267 315.849C392.979 318.702 393.835 321.556 393.835 324.409C393.835 327.605 393.036 330.573 391.438 333.313C389.84 336.166 387.842 338.62 385.445 340.675C380.423 345.012 374.316 348.151 367.125 350.092C360.048 352.146 353.2 353.174 346.579 353.174ZM211.833 244.109C218.225 233.722 225.93 224.419 234.947 216.201C244.078 207.869 254.18 201.134 265.252 195.998H262.513C258.632 195.998 254.237 196.169 249.329 196.511C244.535 196.854 239.627 197.596 234.604 198.737C229.696 199.764 225.131 201.362 220.907 203.531C216.798 205.586 213.431 208.382 210.806 211.921C208.294 215.459 207.039 219.911 207.039 225.276C207.039 228.472 207.495 231.668 208.408 234.864C209.322 238.06 210.463 241.142 211.833 244.109ZM264.738 304.206C270.674 301.467 276.666 297.814 282.716 293.248C288.88 288.682 294.701 283.546 300.18 277.839C305.773 272.132 310.738 266.139 315.076 259.861C319.413 253.583 322.78 247.362 325.178 241.199C326.319 238.459 327.232 235.663 327.917 232.809C328.716 229.841 329.115 226.931 329.115 224.077C329.115 218.484 327.575 214.032 324.493 210.722C321.525 207.298 317.701 204.673 313.021 202.846C308.341 201.02 303.433 199.707 298.297 198.908C293.16 198.109 288.537 197.482 284.428 197.025C275.639 200.678 267.021 205.472 258.575 211.407C250.242 217.228 242.537 223.849 235.461 231.268C228.384 238.573 222.448 246.392 217.654 254.725C223.59 263.856 230.781 272.702 239.227 281.263C247.674 289.824 256.178 297.471 264.738 304.206ZM250.87 261.231C250.185 261.231 249.843 260.888 249.843 260.204C249.843 259.29 250.585 257.978 252.068 256.266C253.552 254.439 255.322 252.556 257.376 250.615C259.431 248.675 261.428 247.077 263.369 245.821C265.309 244.452 266.736 243.767 267.649 243.767C268.106 243.767 268.505 244.109 268.848 244.794C269.418 245.707 269.875 246.62 270.217 247.534C270.674 248.333 271.302 249.189 272.101 250.102C272.671 250.558 273.756 251.186 275.354 251.985C276.952 252.67 277.751 253.241 277.751 253.697C277.751 254.04 277.58 254.325 277.237 254.553C276.895 254.782 276.609 255.01 276.381 255.238C275.924 255.581 274.669 255.98 272.614 256.437C270.56 256.779 268.448 257.122 266.279 257.464C264.225 257.692 262.798 257.864 261.999 257.978C260.173 258.206 258.461 258.663 256.863 259.347C255.379 259.918 253.781 260.489 252.068 261.06C251.84 261.174 251.441 261.231 250.87 261.231ZM236.317 310.541C240.997 310.541 245.562 310.027 250.014 309C242.709 303.293 235.746 296.958 229.126 289.995C222.505 283.032 216.57 275.727 211.319 268.079C210.178 271.047 209.265 274.072 208.58 277.154C207.895 280.236 207.552 283.375 207.552 286.571C207.552 292.278 208.865 296.901 211.49 300.439C214.116 303.978 217.597 306.546 221.935 308.144C226.386 309.742 231.18 310.541 236.317 310.541Z" fill="#0079ff"/>
</svg>

